<svg width="44" height="39" viewBox="0 0 44 39" fill="none" xmlns="http://www.w3.org/2000/svg">
<path fill-rule="evenodd" clip-rule="evenodd" d="M10.2936 0.378526C8.04009 0.190209 5.75262 0.127185 3.43121 0.189263C3.3685 3.06152 3.43197 5.90046 3.62184 8.70609C3.64013 12.036 5.29207 14.0232 8.57803 14.6679C9.96557 14.9039 11.3634 14.9985 12.7717 14.9518C12.8331 16.0605 12.7696 17.133 12.5811 18.1692C12.1673 17.7907 11.7225 17.4436 11.2468 17.1283C9.40705 16.2783 7.62778 15.332 5.90931 14.2893C4.93866 13.4218 4.23983 12.3808 3.81246 11.1665C3.71962 10.9824 3.62431 10.7931 3.52652 10.5987C3.36812 17.5072 3.39995 24.3839 3.62184 31.2284C7.06105 31.3071 10.4923 31.2125 13.9155 30.9445C15.6574 30.2879 16.9917 29.1523 17.9186 27.5377C19.1242 27.4431 20.3315 27.4117 21.5404 27.4431C21.5404 31.1653 21.5404 34.8874 21.5404 38.6096C33.5975 40.2325 40.015 35.0278 40.7933 22.9954C39.8152 11.2076 33.3975 6.06587 21.5404 7.57051C21.5404 11.482 21.5404 15.3933 21.5404 19.3048C20.3966 19.3048 19.2529 19.3048 18.1092 19.3048C18.1092 15.3303 18.1092 11.3558 18.1092 7.38125C22.0492 7.34964 25.9888 7.38125 29.9278 7.47588C37.1638 8.60351 41.7704 12.6727 43.748 19.6833C45.0078 28.5098 41.5447 34.6608 33.359 38.1365C32.2261 38.4372 31.0824 38.6895 29.9278 38.8935C25.9888 38.9881 22.0492 39.0198 18.1092 38.9881C18.1092 36.5277 18.1092 34.0673 18.1092 31.6069C12.0727 31.6069 6.03646 31.6069 0 31.6069C0 21.0712 0 10.5357 0 0C6.09993 0 12.1999 0 18.2998 0C18.3625 1.14258 18.299 2.27816 18.1092 3.40673C15.9283 1.35929 13.323 0.349947 10.2936 0.378526Z" fill="#EC4EA3"/>
<path d="M13.918 23H12.3457V20.1992H13.8555V20.5938H12.8105V21.3867H13.7734V21.7793H12.8105V22.6074H13.918V23ZM14.2871 22.8887V22.4102C14.3301 22.4492 14.3809 22.4844 14.4395 22.5156C14.4993 22.5469 14.5625 22.5736 14.6289 22.5957C14.6953 22.6165 14.7617 22.6328 14.8281 22.6445C14.8945 22.6562 14.9557 22.6621 15.0117 22.6621C15.207 22.6621 15.3522 22.6296 15.4473 22.5645C15.5436 22.4993 15.5918 22.4049 15.5918 22.2812C15.5918 22.2148 15.5755 22.1576 15.543 22.1094C15.5117 22.0599 15.4674 22.015 15.4102 21.9746C15.3529 21.9342 15.2852 21.8958 15.207 21.8594C15.1302 21.8216 15.0475 21.7826 14.959 21.7422C14.8639 21.6914 14.7754 21.64 14.6934 21.5879C14.6113 21.5358 14.5397 21.4785 14.4785 21.416C14.4186 21.3522 14.3711 21.2806 14.3359 21.2012C14.3021 21.1217 14.2852 21.0286 14.2852 20.9219C14.2852 20.7904 14.3145 20.6764 14.373 20.5801C14.4329 20.4824 14.5111 20.4023 14.6074 20.3398C14.7051 20.276 14.8158 20.2292 14.9395 20.1992C15.0632 20.168 15.1895 20.1523 15.3184 20.1523C15.6113 20.1523 15.8249 20.1855 15.959 20.252V20.7109C15.8001 20.5964 15.5957 20.5391 15.3457 20.5391C15.2767 20.5391 15.2077 20.5456 15.1387 20.5586C15.071 20.5716 15.0098 20.5931 14.9551 20.623C14.9017 20.653 14.8581 20.6914 14.8242 20.7383C14.7904 20.7852 14.7734 20.8418 14.7734 20.9082C14.7734 20.9707 14.7865 21.0247 14.8125 21.0703C14.8385 21.1159 14.8763 21.1576 14.9258 21.1953C14.9766 21.2331 15.0378 21.2702 15.1094 21.3066C15.1823 21.3418 15.2663 21.3802 15.3613 21.4219C15.459 21.4727 15.5508 21.526 15.6367 21.582C15.724 21.638 15.8001 21.6999 15.8652 21.7676C15.9316 21.8353 15.9837 21.9108 16.0215 21.9941C16.0605 22.0762 16.0801 22.1699 16.0801 22.2754C16.0801 22.4173 16.0514 22.5371 15.9941 22.6348C15.9368 22.7324 15.8594 22.8118 15.7617 22.873C15.6654 22.9342 15.554 22.9785 15.4277 23.0059C15.3014 23.0332 15.168 23.0469 15.0273 23.0469C14.9805 23.0469 14.9225 23.043 14.8535 23.0352C14.7858 23.0286 14.7161 23.0182 14.6445 23.0039C14.5729 22.9909 14.5052 22.9746 14.4414 22.9551C14.3776 22.9355 14.3262 22.9134 14.2871 22.8887ZM18.3926 20.5938H17.5879V23H17.123V20.5938H16.3203V20.1992H18.3926V20.5938ZM21.0527 23H20.5859V21.7852H19.2676V23H18.8027V20.1992H19.2676V21.377H20.5859V20.1992H21.0527V23ZM23.3164 23H21.7441V20.1992H23.2539V20.5938H22.209V21.3867H23.1719V21.7793H22.209V22.6074H23.3164V23ZM25.9785 23H25.4355L24.9883 22.25C24.9479 22.181 24.9082 22.1224 24.8691 22.0742C24.8314 22.0247 24.7923 21.9844 24.752 21.9531C24.7129 21.9219 24.6699 21.8991 24.623 21.8848C24.5762 21.8704 24.5234 21.8633 24.4648 21.8633H24.2773V23H23.8145V20.1992H24.7363C24.8678 20.1992 24.9889 20.2148 25.0996 20.2461C25.2103 20.2773 25.3066 20.3249 25.3887 20.3887C25.4707 20.4512 25.5345 20.5299 25.5801 20.625C25.627 20.7188 25.6504 20.8288 25.6504 20.9551C25.6504 21.054 25.6354 21.1452 25.6055 21.2285C25.5768 21.3105 25.5352 21.3841 25.4805 21.4492C25.4271 21.513 25.362 21.5677 25.2852 21.6133C25.2096 21.6589 25.1243 21.694 25.0293 21.7188V21.7266C25.0801 21.7552 25.1243 21.7871 25.1621 21.8223C25.1999 21.8561 25.2357 21.8913 25.2695 21.9277C25.3034 21.9642 25.3366 22.0059 25.3691 22.0527C25.403 22.0983 25.4401 22.1517 25.4805 22.2129L25.9785 23ZM24.2773 20.5762V21.4863H24.6641C24.7357 21.4863 24.8014 21.4753 24.8613 21.4531C24.9225 21.431 24.9753 21.3991 25.0195 21.3574C25.0638 21.3158 25.0983 21.265 25.123 21.2051C25.1478 21.1452 25.1602 21.0781 25.1602 21.0039C25.1602 20.8698 25.1178 20.765 25.0332 20.6895C24.9486 20.6139 24.8268 20.5762 24.668 20.5762H24.2773ZM26.7949 20.1445L26.4766 21.0137H26.1777L26.3984 20.1445H26.7949ZM27.2051 22.8887V22.4102C27.248 22.4492 27.2988 22.4844 27.3574 22.5156C27.4173 22.5469 27.4805 22.5736 27.5469 22.5957C27.6133 22.6165 27.6797 22.6328 27.7461 22.6445C27.8125 22.6562 27.8737 22.6621 27.9297 22.6621C28.125 22.6621 28.2702 22.6296 28.3652 22.5645C28.4616 22.4993 28.5098 22.4049 28.5098 22.2812C28.5098 22.2148 28.4935 22.1576 28.4609 22.1094C28.4297 22.0599 28.3854 22.015 28.3281 21.9746C28.2708 21.9342 28.2031 21.8958 28.125 21.8594C28.0482 21.8216 27.9655 21.7826 27.877 21.7422C27.7819 21.6914 27.6934 21.64 27.6113 21.5879C27.5293 21.5358 27.4577 21.4785 27.3965 21.416C27.3366 21.3522 27.2891 21.2806 27.2539 21.2012C27.2201 21.1217 27.2031 21.0286 27.2031 20.9219C27.2031 20.7904 27.2324 20.6764 27.291 20.5801C27.3509 20.4824 27.429 20.4023 27.5254 20.3398C27.623 20.276 27.7337 20.2292 27.8574 20.1992C27.9811 20.168 28.1074 20.1523 28.2363 20.1523C28.5293 20.1523 28.7428 20.1855 28.877 20.252V20.7109C28.7181 20.5964 28.5137 20.5391 28.2637 20.5391C28.1947 20.5391 28.1257 20.5456 28.0566 20.5586C27.9889 20.5716 27.9277 20.5931 27.873 20.623C27.8197 20.653 27.776 20.6914 27.7422 20.7383C27.7083 20.7852 27.6914 20.8418 27.6914 20.9082C27.6914 20.9707 27.7044 21.0247 27.7305 21.0703C27.7565 21.1159 27.7943 21.1576 27.8438 21.1953C27.8945 21.2331 27.9557 21.2702 28.0273 21.3066C28.1003 21.3418 28.1842 21.3802 28.2793 21.4219C28.377 21.4727 28.4688 21.526 28.5547 21.582C28.6419 21.638 28.7181 21.6999 28.7832 21.7676C28.8496 21.8353 28.9017 21.9108 28.9395 21.9941C28.9785 22.0762 28.998 22.1699 28.998 22.2754C28.998 22.4173 28.9694 22.5371 28.9121 22.6348C28.8548 22.7324 28.7773 22.8118 28.6797 22.873C28.5833 22.9342 28.472 22.9785 28.3457 23.0059C28.2194 23.0332 28.0859 23.0469 27.9453 23.0469C27.8984 23.0469 27.8405 23.043 27.7715 23.0352C27.7038 23.0286 27.6341 23.0182 27.5625 23.0039C27.4909 22.9909 27.4232 22.9746 27.3594 22.9551C27.2956 22.9355 27.2441 22.9134 27.2051 22.8887ZM12.3457 27V24.1992H13.1543C14.1868 24.1992 14.7031 24.6543 14.7031 25.5645C14.7031 25.9967 14.5599 26.3444 14.2734 26.6074C13.987 26.8691 13.6029 27 13.1211 27H12.3457ZM12.8086 24.5938V26.6074H13.1797C13.5065 26.6074 13.7604 26.5176 13.9414 26.3379C14.1237 26.1582 14.2148 25.9043 14.2148 25.5762C14.2148 24.9212 13.8757 24.5938 13.1973 24.5938H12.8086ZM16.7891 27H15.2168V24.1992H16.7266V24.5938H15.6816V25.3867H16.6445V25.7793H15.6816V26.6074H16.7891V27ZM17.1582 26.8887V26.4102C17.2012 26.4492 17.252 26.4844 17.3105 26.5156C17.3704 26.5469 17.4336 26.5736 17.5 26.5957C17.5664 26.6165 17.6328 26.6328 17.6992 26.6445C17.7656 26.6562 17.8268 26.6621 17.8828 26.6621C18.0781 26.6621 18.2233 26.6296 18.3184 26.5645C18.4147 26.4993 18.4629 26.4049 18.4629 26.2812C18.4629 26.2148 18.4466 26.1576 18.4141 26.1094C18.3828 26.0599 18.3385 26.015 18.2812 25.9746C18.224 25.9342 18.1562 25.8958 18.0781 25.8594C18.0013 25.8216 17.9186 25.7826 17.8301 25.7422C17.735 25.6914 17.6465 25.64 17.5645 25.5879C17.4824 25.5358 17.4108 25.4785 17.3496 25.416C17.2897 25.3522 17.2422 25.2806 17.207 25.2012C17.1732 25.1217 17.1562 25.0286 17.1562 24.9219C17.1562 24.7904 17.1855 24.6764 17.2441 24.5801C17.304 24.4824 17.3822 24.4023 17.4785 24.3398C17.5762 24.276 17.6868 24.2292 17.8105 24.1992C17.9342 24.168 18.0605 24.1523 18.1895 24.1523C18.4824 24.1523 18.696 24.1855 18.8301 24.252V24.7109C18.6712 24.5964 18.4668 24.5391 18.2168 24.5391C18.1478 24.5391 18.0788 24.5456 18.0098 24.5586C17.9421 24.5716 17.8809 24.5931 17.8262 24.623C17.7728 24.653 17.7292 24.6914 17.6953 24.7383C17.6615 24.7852 17.6445 24.8418 17.6445 24.9082C17.6445 24.9707 17.6576 25.0247 17.6836 25.0703C17.7096 25.1159 17.7474 25.1576 17.7969 25.1953C17.8477 25.2331 17.9089 25.2702 17.9805 25.3066C18.0534 25.3418 18.1374 25.3802 18.2324 25.4219C18.3301 25.4727 18.4219 25.526 18.5078 25.582C18.5951 25.638 18.6712 25.6999 18.7363 25.7676C18.8027 25.8353 18.8548 25.9108 18.8926 25.9941C18.9316 26.0762 18.9512 26.1699 18.9512 26.2754C18.9512 26.4173 18.9225 26.5371 18.8652 26.6348C18.8079 26.7324 18.7305 26.8118 18.6328 26.873C18.5365 26.9342 18.4251 26.9785 18.2988 27.0059C18.1725 27.0332 18.0391 27.0469 17.8984 27.0469C17.8516 27.0469 17.7936 27.043 17.7246 27.0352C17.6569 27.0286 17.5872 27.0182 17.5156 27.0039C17.444 26.9909 17.3763 26.9746 17.3125 26.9551C17.2487 26.9355 17.1973 26.9134 17.1582 26.8887ZM19.9434 27H19.4648V24.1992H19.9434V27ZM22.8203 26.8086C22.5286 26.9674 22.2038 27.0469 21.8457 27.0469C21.4316 27.0469 21.0964 26.918 20.8398 26.6602C20.5833 26.4023 20.4551 26.0612 20.4551 25.6367C20.4551 25.2031 20.5951 24.8477 20.875 24.5703C21.1562 24.2917 21.513 24.1523 21.9453 24.1523C22.2565 24.1523 22.5182 24.1979 22.7305 24.2891V24.7676C22.5156 24.6243 22.2598 24.5527 21.9629 24.5527C21.6647 24.5527 21.4199 24.651 21.2285 24.8477C21.0384 25.0443 20.9434 25.2988 20.9434 25.6113C20.9434 25.9329 21.0254 26.1862 21.1895 26.3711C21.3535 26.5547 21.5762 26.6465 21.8574 26.6465C22.0501 26.6465 22.2168 26.6094 22.3574 26.5352V25.8691H21.7676V25.4785H22.8203V26.8086ZM25.7988 27H25.291L23.9531 24.9414C23.9193 24.8893 23.8913 24.8353 23.8691 24.7793H23.8574C23.8678 24.8392 23.873 24.9674 23.873 25.1641V27H23.4238V24.1992H23.9648L25.2578 26.209C25.3125 26.2923 25.3477 26.3496 25.3633 26.3809H25.3711C25.3581 26.3066 25.3516 26.181 25.3516 26.0039V24.1992H25.7988V27ZM26.3652 26.8887V26.4102C26.4082 26.4492 26.459 26.4844 26.5176 26.5156C26.5775 26.5469 26.6406 26.5736 26.707 26.5957C26.7734 26.6165 26.8398 26.6328 26.9062 26.6445C26.9727 26.6562 27.0339 26.6621 27.0898 26.6621C27.2852 26.6621 27.4303 26.6296 27.5254 26.5645C27.6217 26.4993 27.6699 26.4049 27.6699 26.2812C27.6699 26.2148 27.6536 26.1576 27.6211 26.1094C27.5898 26.0599 27.5456 26.015 27.4883 25.9746C27.431 25.9342 27.3633 25.8958 27.2852 25.8594C27.2083 25.8216 27.1257 25.7826 27.0371 25.7422C26.9421 25.6914 26.8535 25.64 26.7715 25.5879C26.6895 25.5358 26.6178 25.4785 26.5566 25.416C26.4967 25.3522 26.4492 25.2806 26.4141 25.2012C26.3802 25.1217 26.3633 25.0286 26.3633 24.9219C26.3633 24.7904 26.3926 24.6764 26.4512 24.5801C26.5111 24.4824 26.5892 24.4023 26.6855 24.3398C26.7832 24.276 26.8939 24.2292 27.0176 24.1992C27.1413 24.168 27.2676 24.1523 27.3965 24.1523C27.6895 24.1523 27.903 24.1855 28.0371 24.252V24.7109C27.8783 24.5964 27.6738 24.5391 27.4238 24.5391C27.3548 24.5391 27.2858 24.5456 27.2168 24.5586C27.1491 24.5716 27.0879 24.5931 27.0332 24.623C26.9798 24.653 26.9362 24.6914 26.9023 24.7383C26.8685 24.7852 26.8516 24.8418 26.8516 24.9082C26.8516 24.9707 26.8646 25.0247 26.8906 25.0703C26.9167 25.1159 26.9544 25.1576 27.0039 25.1953C27.0547 25.2331 27.1159 25.2702 27.1875 25.3066C27.2604 25.3418 27.3444 25.3802 27.4395 25.4219C27.5371 25.4727 27.6289 25.526 27.7148 25.582C27.8021 25.638 27.8783 25.6999 27.9434 25.7676C28.0098 25.8353 28.0618 25.9108 28.0996 25.9941C28.1387 26.0762 28.1582 26.1699 28.1582 26.2754C28.1582 26.4173 28.1296 26.5371 28.0723 26.6348C28.015 26.7324 27.9375 26.8118 27.8398 26.873C27.7435 26.9342 27.6322 26.9785 27.5059 27.0059C27.3796 27.0332 27.2461 27.0469 27.1055 27.0469C27.0586 27.0469 27.0007 27.043 26.9316 27.0352C26.8639 27.0286 26.7943 27.0182 26.7227 27.0039C26.651 26.9909 26.5833 26.9746 26.5195 26.9551C26.4557 26.9355 26.4043 26.9134 26.3652 26.8887Z" fill="#374151"/>
</svg>
